<svg xmlns="http://www.w3.org/2000/svg" width="25.256" height="25.244" viewBox="0 0 25.256 25.244"><g transform="translate(0.509 0.5)"><g transform="translate(0 0)"><path d="M68.579,62.735A12.134,12.134,0,1,0,70,61.52a12.752,12.752,0,0,0-1.419,1.215.268.268,0,0,0,.378.378,11.582,11.582,0,0,1,19.72,9.312,11.585,11.585,0,0,1-8.764,10.122A11.577,11.577,0,0,1,68.959,63.108C69.2,62.869,68.823,62.491,68.579,62.735Z" transform="translate(-65.036 -59.182)" stroke="#000" stroke-width="1"/></g><g transform="translate(10.902 10.91)"><g transform="translate(0 0)"><path d="M471.759,466.2a1.237,1.237,0,0,0-.236,1.384,1.211,1.211,0,0,0,1.2.681,1.213,1.213,0,1,0-.966-2.066c-.25.239.131.62.378.378a.678.678,0,1,1-.081.864.683.683,0,0,1,.081-.864C472.378,466.334,472,465.953,471.759,466.2Z" transform="translate(-471.407 -465.849)" stroke="#000" stroke-width="1"/></g></g><g transform="translate(5.02 5.032)"><path d="M252.5,260.913c.325-.131.649-.263.971-.4l2.329-.95,2.814-1.148,2.39-.974c.365-.148.732-.3,1.095-.445.161-.067.2-.209.26-.354.086-.2.169-.41.255-.614.306-.735.609-1.47.915-2.205l1.159-2.8q.519-1.251,1.038-2.506c.188-.456.378-.912.566-1.368.008-.021.019-.043.027-.064a.269.269,0,0,0-.33-.33l-.958.4q-1.151.479-2.3.955l-2.809,1.164-2.425,1.006-1.2.5a.462.462,0,0,0-.255.311c-.078.188-.153.376-.231.566q-.439,1.078-.877,2.154-.571,1.4-1.14,2.8l-1.03,2.527q-.282.692-.566,1.384c-.008.021-.019.043-.027.064a.27.27,0,0,0,.188.33.275.275,0,0,0,.33-.188c.129-.319.26-.639.389-.958.311-.765.625-1.532.936-2.3l1.127-2.766q.491-1.2.979-2.4l.322-.789c.051-.126.113-.249.156-.378l.008-.016-.188.188c.322-.134.644-.268.966-.4.773-.322,1.548-.641,2.32-.963l2.809-1.164,2.428-1.006.794-.33c.126-.051.263-.1.384-.158l.016-.008-.33-.33c-.134.322-.268.644-.4.966q-.483,1.159-.963,2.321-.584,1.4-1.164,2.809l-1.006,2.428-.33.794c-.054.126-.115.252-.158.384l-.008.016.188-.188-.958.389-2.3.936-2.766,1.127-2.4.979c-.389.158-.781.317-1.17.478l-.016.008a.278.278,0,0,0-.188.33A.284.284,0,0,0,252.5,260.913Z" transform="translate(-252.149 -246.747)" stroke="#000" stroke-width="1"/></g></g></svg>