<svg xmlns="http://www.w3.org/2000/svg" xmlns:xlink="http://www.w3.org/1999/xlink" width="6.837" height="10.259" viewBox="0 0 6.837 10.259"><defs><clipPath id="a"><rect width="6.837" height="10.259" transform="translate(0 0)"/></clipPath></defs><g clip-path="url(#a)"><path d="M1.931,5.7c.674-.248,1.344-.475,2-.741A1.614,1.614,0,0,0,4.91,3.3a.16.16,0,0,0-.072-.1A1.286,1.286,0,1,1,6.3,3.178a.207.207,0,0,0-.1.186,3.151,3.151,0,0,1-.643,1.925,3.194,3.194,0,0,1-1.435.985c-.441.163-.888.308-1.33.469a4.064,4.064,0,0,0-.477.217.747.747,0,0,0-.384.688.327.327,0,0,0,.149.327A1.275,1.275,0,0,1,1.3,10.259,1.278,1.278,0,0,1,.563,7.92a.158.158,0,0,0,.079-.151q0-2.642,0-5.284A.158.158,0,0,0,.56,2.337,1.282,1.282,0,1,1,2.5.875a1.3,1.3,0,0,1-.5,1.467.185.185,0,0,0-.079.122c0,1.064,0,2.128,0,3.192a.336.336,0,0,0,.007.043M1.924,1.276a.641.641,0,1,0-.642.647.636.636,0,0,0,.642-.647m3.627,1.5a.639.639,0,1,0-.637-.649.636.636,0,0,0,.637.649M1.284,9.62a.642.642,0,1,0-.643-.646.637.637,0,0,0,.643.646" transform="translate(0.001 0)"/></g></svg>