<svg xmlns="http://www.w3.org/2000/svg" width="97.833" height="22.22" viewBox="0 0 97.833 22.22"><g transform="translate(-538 -378)"><path d="M9.154,16.407c-.185.478-.341.927-.537,1.357a.672.672,0,0,1-.352.3,2.362,2.362,0,0,1-2.919-.938,4.778,4.778,0,0,0-1.238-1.14,2.6,2.6,0,0,0-1.021-.154L3,16.038c.154.157.316.305.459.471a5.076,5.076,0,0,1,1.068,1.305A2.977,2.977,0,0,0,8.01,19.621c.16-.02.319-.045.545-.078,0,.759.029,1.477-.011,2.191-.024.422-.412.616-.895.392a18.436,18.436,0,0,1-2.844-1.478A11.364,11.364,0,0,1,10.062.081,11.384,11.384,0,0,1,15.5,22.012c-.121.046-.241.1-.365.131-.6.163-.9-.044-.906-.663-.014-.869-.016-1.74,0-2.609a3.288,3.288,0,0,0-.709-2.44c.474-.1.889-.164,1.3-.264a4.618,4.618,0,0,0,3.815-4.5A4.906,4.906,0,0,0,17.67,7.9c-.091-.109-.055-.332-.062-.5-.03-.766-.037-1.534-.087-2.3a.405.405,0,0,0-.591-.383c-.757.28-1.5.61-2.253.889a1.718,1.718,0,0,1-.863.152,11.858,11.858,0,0,0-4.849.008A1.4,1.4,0,0,1,8.2,5.645C7.536,5.373,6.907,5,6.229,4.777c-.726-.243-.922-.125-1.011.617A19.777,19.777,0,0,0,5.2,7.425a1.006,1.006,0,0,1-.112.54A5.232,5.232,0,0,0,8.546,16.3c.216.036.431.074.609.105" transform="translate(538 378)" fill="#f9f9f9"/><path d="M92.815,21.7c-.677,0-1.267-.02-1.855.007-.421.019-.554-.153-.542-.554.022-.721.021-1.443.009-2.165-.006-.355.136-.494.492-.492q2.527.013,5.053,0c.366,0,.483.164.482.508-.006,2.628-.009,5.256,0,7.884a.689.689,0,0,1-.465.67,10.026,10.026,0,0,1-6.262.943c-3.456-.5-5.328-2.347-5.925-5.794a15.626,15.626,0,0,1,.243-6.716,6.194,6.194,0,0,1,5.958-5,12.428,12.428,0,0,1,5.1.525c.7.24.719.306.551,1-.147.612-.317,1.218-.438,1.835-.084.432-.261.537-.69.4a8.969,8.969,0,0,0-3.95-.315A3.265,3.265,0,0,0,87.7,16.79a9.7,9.7,0,0,0,.029,6.166A3.129,3.129,0,0,0,91.052,25.2c1.764.007,1.764.007,1.764-1.722Z" transform="translate(486.78 370.639)" fill="#f9f9f9"/><path d="M180.6,22.452a2.961,2.961,0,0,0-.325-.044c-1.461,0-2.921,0-4.455,0-.012.243-.032.455-.032.666q0,2.888,0,5.775c0,.727,0,.729-.751.729s-1.482-.032-2.221,0c-.516.024-.659-.159-.657-.669.018-4.59.011-9.181.01-13.771,0-.555.018-1.112-.012-1.666-.024-.452.127-.635.6-.617.813.031,1.629.034,2.443,0,.481-.017.6.186.6.625-.017,1.629-.007,3.258-.007,4.887v.693h4.785c.009-.163.027-.323.027-.483,0-1.7.013-3.406-.007-5.109-.006-.449.121-.636.6-.618.813.031,1.629.029,2.443.006.425-.012.593.123.592.568q-.013,7.8.006,15.6c0,.41-.15.559-.554.55-.851-.021-1.7-.027-2.554-.006-.429.01-.53-.177-.527-.567.014-1.981.008-3.961.008-5.941Z" transform="translate(427.094 369.34)" fill="#f9f9f9"/><path d="M253.525,28.72c.063.834-.393.9-.954.854a6.257,6.257,0,0,0-1.109,0c-.53.055-.71-.128-.705-.676.023-2.867.01-5.735.011-8.6,0-2.257.017-4.514,0-6.771,0-.509.15-.694.664-.672.794.034,1.591.033,2.386,0,.47-.017.61.167.605.617-.017,1.664-.007,3.327-.007,5.067.2-.081.35-.134.493-.2a5.917,5.917,0,0,1,3.089-.478,3.712,3.712,0,0,1,3.4,3.167,12.037,12.037,0,0,1-.181,6.091,3.51,3.51,0,0,1-3.58,2.756,6.253,6.253,0,0,1-4.1-1.162m.8-4.855c0,.74-.02,1.481.014,2.219.008.177.164.47.3.5a12.073,12.073,0,0,0,2.106.313A1.081,1.081,0,0,0,257.821,26a7.429,7.429,0,0,0,.021-4.052,1.524,1.524,0,0,0-1.733-1.158,5.184,5.184,0,0,0-1.387.352.761.761,0,0,0-.374.558c-.045.719-.018,1.442-.018,2.163" transform="translate(374.137 369.341)" fill="#f9f9f9"/><path d="M221.679,39.8a7.188,7.188,0,0,1-5.2.986,2.951,2.951,0,0,1-2.663-2.833c-.132-1.822-.087-3.657-.109-5.486-.011-.906.013-1.812-.006-2.718-.008-.407.14-.563.551-.553.831.022,1.665.031,2.5,0,.456-.015.617.137.613.6-.017,2.145-.006,4.29-.007,6.436,0,1.5.569,1.961,2.048,1.661.109-.022.219-.04.325-.071.877-.255.919-.32.917-1.22-.006-2.238.005-4.476-.017-6.713-.005-.519.144-.725.693-.694.792.044,1.59.02,2.385,0,.377-.009.532.128.532.514q-.009,5.188.005,10.375c0,.395-.167.525-.534.514s-.74,0-1.109.011c-.507.019-1.026.07-.917-.809" transform="translate(399.104 358.337)" fill="#f9f9f9"/><path d="M144.824,25.477c-.522,0-.947-.012-1.37,0-.349.013-.514-.115-.5-.481.015-.536-.024-1.076.021-1.609.014-.164.227-.314.355-.465.019-.023.071-.016.106-.027.454-.138,1.085-.146,1.31-.452s.075-.923.082-1.4c.007-.444.021-.889,0-1.332-.016-.352.1-.5.471-.495q1.332.03,2.665.006c.358-.007.441.152.429.469-.017.444,0,.889,0,1.332s0,.887,0,1.443c.666,0,1.306.028,1.941-.009.483-.028.671.13.645.623-.031.609-.025,1.222,0,1.831.019.448-.172.582-.594.566-.642-.024-1.284-.007-1.969-.007,0,1.64-.035,3.208.017,4.774.021.646.6.977,1.448,1,1.148.027,1.148.027,1.149,1.211v.111c0,1.421,0,1.453-1.45,1.554a8.529,8.529,0,0,1-2.04-.1,2.89,2.89,0,0,1-2.591-2.712c-.142-1.543-.09-3.1-.12-4.656-.007-.365,0-.731,0-1.17" transform="translate(446.766 365.054)" fill="#f9f9f9"/><path d="M131.986,34.834c0,1.682-.017,3.365.01,5.046.008.516-.174.691-.674.673-.775-.028-1.553-.024-2.329-.01-.439.008-.644-.152-.643-.612q.013-5.1,0-10.2c0-.413.132-.605.579-.59.831.028,1.664.033,2.495,0,.456-.016.566.174.562.589-.015,1.7-.006,3.4-.006,5.1Z" transform="translate(456.601 358.371)" fill="#f9f9f9"/><path d="M131.911,16.032a2,2,0,1,1-4,.021,2.017,2.017,0,0,1,1.987-2.035,2.038,2.038,0,0,1,2.016,2.013" transform="translate(456.899 368.556)" fill="#f9f9f9"/></g></svg>