<svg xmlns="http://www.w3.org/2000/svg" width="27.184" height="24.239" viewBox="0 0 27.184 24.239"><g transform="translate(0)"><path d="M43.544,40.664l-11-19.055a2.591,2.591,0,0,0-4.489,0l-11,19.055A2.592,2.592,0,0,0,19.3,44.552h22a2.592,2.592,0,0,0,2.245-3.888ZM42.129,42.44a.96.96,0,0,1-.83.479h-22a.958.958,0,0,1-.83-1.438l11-19.055a.959.959,0,0,1,1.66,0l11,19.055A.962.962,0,0,1,42.129,42.44ZM29.481,35.783h1.633V27.823H29.481Zm0,4.117h1.633V37.382H29.481Z" transform="translate(-16.706 -20.313)"/></g></svg>