<svg xmlns="http://www.w3.org/2000/svg" width="23.723" height="26.108" viewBox="0 0 23.723 26.108"><g transform="translate(0.25 0.25)"><path d="M23.676,12.011a3.365,3.365,0,0,0,2.671,1.333h.23a3.064,3.064,0,0,0,2.444-1.512A3.265,3.265,0,0,0,29.2,8.815L26.429,2.622A1.924,1.924,0,0,0,24.677,1.49H12.036a1.924,1.924,0,0,0-1.753,1.132L7.5,8.809a3.265,3.265,0,0,0,.187,3.017,3.064,3.064,0,0,0,2.444,1.512h.23A3.365,3.365,0,0,0,13.034,12,3.365,3.365,0,0,0,15.7,13.344a3.323,3.323,0,0,0,2.64-1.3,3.323,3.323,0,0,0,2.639,1.3A3.363,3.363,0,0,0,23.676,12.011Zm-4.968-.884a.4.4,0,0,0-.71,0,2.542,2.542,0,0,1-2.3,1.433,2.568,2.568,0,0,1-2.315-1.473.4.4,0,0,0-.715,0,2.568,2.568,0,0,1-2.315,1.473h-.177a2.283,2.283,0,0,1-1.819-1.13,2.473,2.473,0,0,1-.145-2.3l2.79-6.19a1.132,1.132,0,0,1,1.029-.665H24.669a1.132,1.132,0,0,1,1.029.665l2.782,6.19a2.473,2.473,0,0,1-.137,2.286,2.283,2.283,0,0,1-1.819,1.13h-.177a2.571,2.571,0,0,1-2.315-1.473.4.4,0,0,0-.715,0,2.568,2.568,0,0,1-2.312,1.473,2.542,2.542,0,0,1-2.3-1.423Z" transform="translate(-6.902 -1.49)" stroke="#000" stroke-width="0.5"/><path d="M32.329,55.66a.4.4,0,0,0-.4-.4H24.242V48.626a.4.4,0,0,0-.792,0V55.66a.4.4,0,0,0,.4.4h8.087a.4.4,0,0,0,.4-.4Z" transform="translate(-18.849 -35.893)" stroke="#000" stroke-width="0.5"/><path d="M7.576,56.593H8.56a.4.4,0,0,0,.4-.4V49.356a.4.4,0,1,0-.792,0V55.8H7.576a1.623,1.623,0,0,0,0,3.244H18.263a.4.4,0,1,0,0-.792H7.576a.831.831,0,0,1,0-1.66Z" transform="translate(-6.018 -36.43)" stroke="#000" stroke-width="0.5"/><path d="M58.181,63.489h7.694a1.019,1.019,0,0,0,1.016-1.016V60.958a4.809,4.809,0,0,0-2.42-4.184,3.431,3.431,0,1,0-4.88,0,4.809,4.809,0,0,0-2.42,4.184v1.515A1.019,1.019,0,0,0,58.181,63.489Zm-.227-2.534a4.023,4.023,0,0,1,2.5-3.732.4.4,0,0,0,.074-.692,2.64,2.64,0,1,1,2.991,0,.4.4,0,0,0,.074.692A4.023,4.023,0,0,1,66.1,60.958v1.515a.227.227,0,0,1-.227.227H58.181a.227.227,0,0,1-.227-.227Z" transform="translate(-43.668 -37.881)" stroke="#000" stroke-width="0.5"/></g></svg>