<svg xmlns="http://www.w3.org/2000/svg" width="23.228" height="23.492" viewBox="0 0 23.228 23.492"><g transform="translate(0)"><g transform="translate(0 0)"><path d="M23.421,19.813V13.364a1.188,1.188,0,0,0-1.188-1.188H18.069a.924.924,0,0,1,0-1.848h4.164a3.035,3.035,0,0,1,3.035,3.035v6.449a4.883,4.883,0,1,1-1.848,0ZM9.959,15.679a4.883,4.883,0,1,1,1.848,0V28.3a.924.924,0,1,1-1.848,0Zm.924-1.76a3.035,3.035,0,1,0-3.035-3.035A3.035,3.035,0,0,0,10.883,13.919ZM24.345,27.644a3.035,3.035,0,1,0-3.035-3.035A3.035,3.035,0,0,0,24.345,27.644Z" transform="translate(-6 -6)"/></g></g></svg>