<svg xmlns="http://www.w3.org/2000/svg" width="38.936" height="26.774" viewBox="0 0 38.936 26.774"><path d="M-3.48-.754A11.761,11.761,0,0,1-5.643-7.805c0-6.847,3.985-12.774,12.865-16.351l1.252,1.942c-5.237,1.839-9.563,6.234-9.563,10.424a1.6,1.6,0,0,0,2.163,1.329,8.2,8.2,0,0,1,2.846-.511c4.326,0,7.969,2.555,7.969,6.745,0,3.986-3.643,6.847-7.969,6.847C.277,2.618-2,1.29-3.48-.754Zm21.289,0a11.761,11.761,0,0,1-2.163-7.051c0-6.847,4.1-12.774,12.979-16.351l1.138,1.942C24.64-20.375,20.2-15.981,20.2-11.791a1.6,1.6,0,0,0,2.163,1.329,8.718,8.718,0,0,1,2.846-.511c4.44,0,8.083,2.555,8.083,6.745,0,3.986-3.643,6.847-8.083,6.847C21.566,2.618,19.29,1.29,17.81-.754Z" transform="translate(5.643 24.156)" fill="#dbdbdb" opacity="0.276"/></svg>