<svg xmlns="http://www.w3.org/2000/svg" width="9.534" height="9.302" viewBox="0 0 9.534 9.302"><path d="M4.769,0A3.178,3.178,0,0,1,5.29.542c.342.641.628,1.315.987,1.946a.982.982,0,0,0,.591.417c.694.144,1.406.2,2.1.339a.79.79,0,0,1,.541.392.808.808,0,0,1-.2.647,18.124,18.124,0,0,1-1.45,1.411.866.866,0,0,0-.286.941c.136.64.257,1.287.33,1.938a.818.818,0,0,1-.2.648.788.788,0,0,1-.673.016c-.661-.3-1.285-.681-1.944-.984a.891.891,0,0,0-.665,0c-.644.3-1.251.67-1.9.961a.853.853,0,0,1-.72,0,.882.882,0,0,1-.186-.7c.075-.651.209-1.3.331-1.94a.792.792,0,0,0-.272-.844A15.477,15.477,0,0,1,.267,4.354.985.985,0,0,1,0,3.628c.035-.168.37-.344.6-.391.677-.139,1.371-.19,2.047-.332a.976.976,0,0,0,.581-.419c.353-.614.63-1.271.972-1.891A3.492,3.492,0,0,1,4.769,0Z" transform="translate(0.01)"/></svg>